<svg width="20" height="22" viewBox="0 0 20 22" fill="none" xmlns="http://www.w3.org/2000/svg">
<path d="M3.27319 8.51682V14.1711C3.27319 14.9231 2.68237 15.5237 1.93042 15.5237C1.18335 15.5237 0.460693 14.9182 0.460693 14.1711V8.51682C0.460693 7.77952 1.18335 7.17405 1.93042 7.17405C2.66772 7.17405 3.27319 7.77952 3.27319 8.51682ZM3.80054 16.1828C3.80054 16.9836 4.44507 17.6282 5.24585 17.6282H6.21753L6.23218 20.6116C6.23218 22.4133 8.92749 22.3987 8.92749 20.6116V17.6282H10.7439V20.6116C10.7439 22.4035 13.4539 22.4084 13.4539 20.6116V17.6282H14.4402C15.2312 17.6282 15.8757 16.9836 15.8757 16.1828V7.42307H3.80054V16.1828V16.1828ZM15.9099 6.94944H3.74683C3.74683 4.8596 4.99683 3.04319 6.85229 2.09592L5.91968 0.372292C5.78296 0.133034 6.12964 -0.0183328 6.24683 0.186745L7.19409 1.92503C8.89819 1.16819 10.8562 1.20725 12.4822 1.92503L13.4246 0.191628C13.5466 -0.0183329 13.8884 0.137917 13.7517 0.377175L12.8191 2.09592C14.6599 3.04319 15.9099 4.8596 15.9099 6.94944V6.94944ZM7.57495 4.23948C7.57495 3.96116 7.35034 3.72678 7.06226 3.72678C6.78394 3.72678 6.56421 3.96116 6.56421 4.23948C6.56421 4.5178 6.78882 4.75218 7.06226 4.75218C7.35034 4.75218 7.57495 4.5178 7.57495 4.23948ZM13.1121 4.23948C13.1121 3.96116 12.8875 3.72678 12.614 3.72678C12.3259 3.72678 12.1013 3.96116 12.1013 4.23948C12.1013 4.5178 12.3259 4.75218 12.614 4.75218C12.8875 4.75218 13.1121 4.5178 13.1121 4.23948ZM17.741 7.17405C17.0037 7.17405 16.3982 7.76487 16.3982 8.51682V14.1711C16.3982 14.9231 17.0037 15.5237 17.741 15.5237C18.4929 15.5237 19.2107 14.9182 19.2107 14.1711V8.51682C19.2107 7.76487 18.488 7.17405 17.741 7.17405Z" fill="black"/>
</svg>
