<svg width="20" height="22" viewBox="0 0 20 22" fill="none" xmlns="http://www.w3.org/2000/svg">
<path d="M16.0222 11.6516C16.0125 9.85962 16.823 8.50708 18.4636 7.51099C17.5457 6.19751 16.1589 5.47485 14.3279 5.33325C12.5945 5.19653 10.7 6.34399 10.0066 6.34399C9.27417 6.34399 7.59448 5.38208 6.27612 5.38208C3.55151 5.42603 0.656006 7.55493 0.656006 11.886C0.656006 13.1653 0.890381 14.4869 1.35913 15.8508C1.98413 17.6428 4.23999 22.0374 6.59351 21.9641C7.82397 21.9348 8.69311 21.0901 10.2947 21.0901C11.8474 21.0901 12.6531 21.9641 14.0251 21.9641C16.3982 21.9299 18.4392 17.9358 19.0349 16.1389C15.8513 14.6399 16.0222 11.7444 16.0222 11.6516V11.6516ZM13.2585 3.63403C14.5916 2.052 14.4695 0.611572 14.4304 0.0939941C13.2537 0.162354 11.8914 0.894775 11.115 1.7981C10.2605 2.76489 9.75757 3.96118 9.86499 5.30884C11.1394 5.40649 12.3015 4.7522 13.2585 3.63403V3.63403Z" fill="black"/>
</svg>
